<svg viewBox="0 0 382 141" fill="none" xmlns="http://www.w3.org/2000/svg">
<g clip-path="url(#clip0_819_1618)">
<mask id="mask0_819_1618" style="mask-type:luminance" maskUnits="userSpaceOnUse" x="0" y="0" width="382" height="141">
<path d="M382 0H0V141H382V0Z" fill="white"/>
</mask>
<g mask="url(#mask0_819_1618)">
<path d="M1.41016 29.769V59.5381H5.99134H10.5725V49.0315C10.5725 43.2175 10.8544 38.5246 11.1364 38.5246C11.4887 38.5246 15.4357 43.2175 20.0168 49.0315L28.3334 59.5381H34.6766H41.0199L38.6236 56.5259C31.7164 48.1209 17.6205 30.1192 17.6205 29.699C17.6205 29.3487 21.6378 24.1654 35.7338 6.44411L40.9493 0H34.6061H28.3334L19.9463 10.5067C15.3651 16.2504 11.4183 21.0134 11.1364 21.0134C10.784 21.0134 10.5725 16.2504 10.5725 10.5067V0H5.99134H1.41016V29.769Z" fill="currentColor"/>
<path d="M52.8606 22.0641C52.8606 46.6497 52.8606 46.8601 48.1386 48.7513C45.8125 49.7317 45.8125 49.8019 45.8125 54.5649V59.3276L49.1958 58.7674C53.5654 57.9269 57.5826 55.055 60.2607 50.8525L62.3751 47.4204L62.5868 28.5783L62.7981 9.80628H69.0708H75.4141V34.6722V59.5381H80.3474H85.281V29.769V0H69.0708H52.8606V22.0641Z" fill="currentColor"/>
<path d="M277.831 8.89569C278.043 17.231 278.183 18.2116 280.228 22.4143C284.527 31.38 293.9 38.2444 303.063 39.015L307.291 39.4353V49.4515V59.5381H312.225H317.158V29.769V0H312.225H307.291V14.7094V29.4188H304.684C299.468 29.3487 292.209 24.4456 289.39 19.0522C288.051 16.5306 286.852 9.38599 286.852 3.99254V0H282.201H277.549L277.831 8.89569Z" fill="currentColor"/>
<path d="M322.795 29.769V59.5381L328.997 59.468H335.129L353.453 36.2133L371.779 13.0283L371.989 36.2831L372.13 59.5381H377.065H381.997V29.769V0H375.795H369.521L351.268 23.0447C341.26 35.7229 332.803 45.9495 332.521 45.739C332.169 45.5991 331.957 35.2325 331.957 22.6945V0H327.376H322.795V29.769Z" fill="currentColor"/>
<path d="M0 111.023V140.792H4.58118H9.16236V117.607C9.16236 104.369 9.44428 94.5626 9.79668 94.7026C10.1491 94.7727 14.5893 100.236 19.7343 106.68C24.8793 113.124 29.3195 118.378 29.6015 118.238C29.9539 118.098 34.3941 112.704 39.6096 106.19L48.9831 94.2823L49.1951 117.537L49.3358 140.792H54.2695H59.2028V111.023V81.2539H52.9304H46.7282L38.4113 91.7608C33.8303 97.5043 29.7425 102.267 29.3195 102.197C28.8967 102.197 24.8793 97.5043 20.4391 91.7608L12.334 81.3237L6.20223 81.2539H0V111.023Z" fill="currentColor"/>
<path d="M89.1561 82.0937C80.346 83.2847 71.5359 90.0087 67.378 98.6943C65.3341 103.037 65.1934 103.808 65.1934 111.022C65.1934 118.167 65.3341 119.078 67.378 123.35C68.6465 126.012 71.1133 129.444 73.2277 131.545C79.3597 137.639 85.2797 140.091 94.0898 140.091C103.322 140.161 109.736 137.499 115.727 131.125C126.933 119.287 126.44 100.936 114.74 89.9385C107.411 83.0044 99.7282 80.6927 89.1561 82.0937ZM102.547 93.0907C108.961 95.9626 114.176 104.018 114.176 111.022C114.176 118.097 109.173 125.662 102.406 128.954C98.107 131.055 91.0592 131.055 86.6187 129.094C78.9364 125.662 74.7079 119.287 74.7079 111.092C74.7079 105.419 76.047 101.846 79.6416 97.7836C85.1389 91.6198 94.724 89.6586 102.547 93.0907Z" fill="currentColor"/>
<path d="M153.295 82.0914C144.485 83.282 135.675 90.0063 131.517 98.6919C129.473 103.035 129.332 103.805 129.332 111.02C129.332 118.165 129.473 119.075 131.517 123.348C134.829 130.282 141.877 136.656 148.714 138.898C149.701 139.248 152.308 139.738 154.564 140.018L158.581 140.508V135.816V131.053L154.775 130.282C148.079 128.952 142.512 124.398 139.904 118.165C138.424 114.592 138.565 106.817 140.186 103.245C143.005 97.0811 148.009 93.2284 155.057 91.6877L158.581 90.9173V86.5044C158.581 84.0527 158.37 81.8813 158.088 81.741C157.735 81.6014 155.621 81.741 153.295 82.0914Z" fill="currentColor"/>
<path d="M163.514 111.023V140.792H168.095H172.676V130.285C172.676 124.471 172.958 119.779 173.24 119.779C173.592 119.779 177.539 124.471 182.12 130.285L190.437 140.792H196.78H203.123L200.727 137.78C193.82 129.374 179.724 111.373 179.724 110.953C179.724 110.603 183.741 105.42 197.837 87.698L203.053 81.2539H196.71H190.437L182.05 91.7608C177.469 97.5043 173.522 102.267 173.24 102.267C172.887 102.267 172.676 97.5043 172.676 91.7608V81.2539H168.095H163.514V111.023Z" fill="currentColor"/>
<path d="M208.619 111.022V140.932L221.517 140.651C235.613 140.371 238.573 139.67 242.731 135.468C247.735 130.354 249.286 121.879 246.185 115.856C244.493 112.703 239.912 108.29 237.516 107.52C236.458 107.17 236.177 106.68 236.458 105.909C239.137 98.9744 237.727 91.4801 232.864 86.5764C228.988 82.7945 225.957 81.7435 216.936 81.3934L208.619 81.043V111.022ZM223.772 92.1104C228.001 94.1415 229.34 100.096 226.168 103.387C224.548 105.139 219.684 106.819 218.486 106.119C217.711 105.629 217.499 92.2504 218.275 91.5502C219.05 90.7795 221.305 90.9893 223.772 92.1104ZM234.555 116.976C236.74 118.447 238.432 122.229 237.868 124.681C236.811 129.514 232.652 131.265 223.068 130.845L218.134 130.635L217.922 124.051C217.852 120.408 217.922 116.976 218.134 116.416C218.627 115.015 232.23 115.505 234.555 116.976Z" fill="currentColor"/>
<path d="M253.02 111.089V140.998L260.067 140.578C268.032 140.158 272.19 138.617 275.291 134.974C278.744 130.912 279.802 127.69 279.802 120.755C279.802 115.082 279.59 113.891 277.828 110.599C275.361 105.906 270.568 102.334 265.917 101.703L262.534 101.213L262.322 91.1967L262.111 81.25H257.6H253.02V111.089ZM267.89 113.541C269.723 115.502 269.935 116.203 269.935 120.615C269.935 124.398 269.582 125.939 268.525 127.48C267.186 129.371 263.45 131.262 262.604 130.492C262.393 130.211 262.182 125.869 262.182 120.685V111.369H264.014C265.142 111.369 266.622 112.21 267.89 113.541Z" fill="currentColor"/>
<path d="M282.623 111.023V140.792H287.557H292.49V111.023V81.2539H287.557H282.623V111.023Z" fill="currentColor"/>
<path d="M90.9199 29.4214V58.1396H95.5012H100.083V46.2324V34.3246H156.396H212.709L213.978 38.247C215.528 43.2205 220.11 49.454 224.55 52.6764C234.911 60.2412 249.711 59.8911 259.719 51.9061C267.049 46.0222 271.137 36.8462 270.502 27.8104C269.939 19.8253 267.754 15.2024 261.904 9.38865C255.208 2.73442 251.191 1.12339 241.395 1.05335C234.769 1.05335 233.994 1.19343 229.554 3.36482C221.519 7.28734 215.811 14.0817 213.626 22.2769L212.78 25.2188H156.466H100.083V12.9609V0.703125H95.5012H90.9199V29.4214ZM250.557 11.7002C253.869 13.4512 257.957 17.5839 259.789 21.0161C261.834 24.7285 261.622 34.3946 259.508 38.3171C257.534 42.0993 254.011 45.602 250.486 47.2826C246.328 49.3141 237.871 49.5242 233.853 47.773C226.171 44.4111 222.012 38.0368 222.012 29.6316C222.012 20.3857 226.241 14.2218 235.051 10.7195C238.293 9.38865 247.174 9.949 250.557 11.7002Z" fill="#C14040"/>
</g>
</g>
<defs>
<clipPath id="clip0_819_1618">
<rect width="382" height="141" fill="white"/>
</clipPath>
</defs>
</svg>
